<svg xmlns="http://www.w3.org/2000/svg" viewBox="0 0 48 48" width="48px" height="48px"><path fill="#fdd835" d="M43,24c0,10.492-8.508,19-19,19S5,34.492,5,24S13.508,5,24,5S43,13.508,43,24z"/><path fill="#37474f" d="M24,6c9.926,0,18,8.074,18,18s-8.074,18-18,18S6,33.926,6,24S14.074,6,24,6 M24,4C12.956,4,4,12.956,4,24s8.956,20,20,20s20-8.956,20-20S35.044,4,24,4z"/><path fill="#37474f" d="M14.109 33.613l1.703.828 2.207-3.461.883-5.191L16 26l-.02 4.781L14.109 33.613zM29 16c-1.105 0-2-.898-2-1.996C27 12.898 27.895 12 29 12s2 .898 2 2.004C31 15.102 30.105 16 29 16M26.387 33.879c0 .617-.5 1.117-1.117 1.117s-1.117-.5-1.117-1.117.5-1.117 1.117-1.117S26.387 33.262 26.387 33.879zM35 33.879C35 34.496 34.5 35 33.883 35c-.621 0-1.121-.504-1.121-1.121s.5-1.117 1.121-1.117C34.5 32.762 35 33.262 35 33.879z"/><path fill="#37474f" d="M24.281,33.367l2.004,0.98l2.898-4.383l0.734-5.801L27,24v5.406L24.281,33.367z"/><path fill="#37474f" d="M30.895,17.629C30.328,17.105,29.734,17,29.184,17h-0.559c-0.539,0-1.32,0.105-1.773,0.699L27,19c0,1.59,0,5.496,0,6c0,0.863,1.332,1.563,1.672,1.969s4.313,7.574,4.313,7.574l1.887-1.172L31,25.492v-5.523L30.895,17.629z"/><path fill="#37474f" d="M35.16 25c-.105 0-.207-.02-.313-.059l-2.895-2.137-2.379-4.164c-.23-.406-.09-.918.313-1.148.402-.227.914-.09 1.145.313l2.09 3.664 2.352 1.914c.348.262.641.66.469 1.09C35.809 24.801 35.492 25 35.16 25zM24.152 25.68c-.051 0-.102-.004-.152-.016-.457-.086-.758-.52-.676-.977l.602-3.477 2.938-3.527c.297-.355.824-.402 1.18-.105.355.297.406.824.109 1.18l-2.656 3.188-.52 3.043C24.902 25.395 24.547 25.68 24.152 25.68zM18 19c-1.102 0-2-.895-2-2s.898-2 2-2c1.105 0 2 .895 2 2S19.105 19 18 19M15.902 34.047c0 .527-.426.953-.953.953C14.426 35 14 34.574 14 34.047c0-.523.426-.949.949-.949C15.477 33.098 15.902 33.523 15.902 34.047zM22.941 34.047c0 .527-.426.949-.949.949-.527 0-.953-.422-.953-.949 0-.523.426-.949.953-.949C22.516 33.098 22.941 33.523 22.941 34.047z"/><path fill="#37474f" d="M19.645,20.336L19.141,20h-2.434l-0.563,0.559L16,22c0,1.352,0,3.57,0,4c0,0.73,1.426,2.004,1.715,2.344c0.289,0.344,3.516,6.27,3.516,6.27l1.602-1l-3.219-6.691v-4.695L19.645,20.336z"/><path fill="#37474f" d="M23.977 25.68h-3.305l-2.277-4.449c-.215-.41-.055-.918.355-1.137.41-.211.918-.055 1.133.355L21.687 24h2.289c.465 0 .84.375.84.84C24.816 25.301 24.437 25.68 23.977 25.68zM13.91 27.449c-.055 0-.109-.004-.164-.016-.457-.09-.75-.531-.66-.988l.598-2.98 2.406-3.125c.277-.375.805-.449 1.172-.172.375.273.449.801.172 1.172l-2.18 2.824-.523 2.609C14.652 27.176 14.305 27.449 13.91 27.449z"/></svg>